<mxfile host="app.diagrams.net" modified="2023-09-22T07:12:04.096Z" agent="Mozilla/5.0 (Macintosh; Intel Mac OS X 10_15_7) AppleWebKit/537.36 (KHTML, like Gecko) Chrome/116.0.0.0 Safari/537.36" etag="fw9EtbsWLkNVKt_t8CCe" version="21.8.0" type="google">
  <diagram name="Page-1" id="LSwvst4Mrz5taLJxBMSG">
    <mxGraphModel grid="1" page="1" gridSize="10" guides="1" tooltips="1" connect="1" arrows="1" fold="1" pageScale="1" pageWidth="850" pageHeight="1100" math="0" shadow="0">
      <root>
        <mxCell id="0" />
        <mxCell id="1" parent="0" />
        <mxCell id="LhTqmezMrc8dayZ3SjZP-1" value="client" style="shape=umlLifeline;perimeter=lifelinePerimeter;whiteSpace=wrap;html=1;container=0;dropTarget=0;collapsible=0;recursiveResize=0;outlineConnect=0;portConstraint=eastwest;newEdgeStyle={&quot;edgeStyle&quot;:&quot;elbowEdgeStyle&quot;,&quot;elbow&quot;:&quot;vertical&quot;,&quot;curved&quot;:0,&quot;rounded&quot;:0};fontSize=14;" vertex="1" parent="1">
          <mxGeometry x="512.7899280575539" y="151.16279069767444" width="218.60431654676256" height="502.79069767441865" as="geometry" />
        </mxCell>
        <mxCell id="LhTqmezMrc8dayZ3SjZP-2" value="" style="html=1;points=[];perimeter=orthogonalPerimeter;outlineConnect=0;targetShapes=umlLifeline;portConstraint=eastwest;newEdgeStyle={&quot;edgeStyle&quot;:&quot;elbowEdgeStyle&quot;,&quot;elbow&quot;:&quot;vertical&quot;,&quot;curved&quot;:0,&quot;rounded&quot;:0};" vertex="1" parent="LhTqmezMrc8dayZ3SjZP-1">
          <mxGeometry x="98.37194244604315" y="218.60465116279073" width="21.860431654676255" height="87.44186046511629" as="geometry" />
        </mxCell>
        <mxCell id="LhTqmezMrc8dayZ3SjZP-3" value="skynet" style="shape=umlLifeline;perimeter=lifelinePerimeter;whiteSpace=wrap;html=1;container=0;dropTarget=0;collapsible=0;recursiveResize=0;outlineConnect=0;portConstraint=eastwest;newEdgeStyle={&quot;edgeStyle&quot;:&quot;elbowEdgeStyle&quot;,&quot;elbow&quot;:&quot;vertical&quot;,&quot;curved&quot;:0,&quot;rounded&quot;:0};fontSize=14;" vertex="1" parent="1">
          <mxGeometry x="906.2776978417265" y="151.16279069767444" width="218.60431654676256" height="655.8139534883721" as="geometry" />
        </mxCell>
        <mxCell id="LhTqmezMrc8dayZ3SjZP-4" value="" style="html=1;points=[];perimeter=orthogonalPerimeter;outlineConnect=0;targetShapes=umlLifeline;portConstraint=eastwest;newEdgeStyle={&quot;edgeStyle&quot;:&quot;elbowEdgeStyle&quot;,&quot;elbow&quot;:&quot;vertical&quot;,&quot;curved&quot;:0,&quot;rounded&quot;:0};" vertex="1" parent="LhTqmezMrc8dayZ3SjZP-3">
          <mxGeometry x="87.44172661870502" y="218.60465116279073" width="43.72086330935251" height="437.20930232558146" as="geometry" />
        </mxCell>
        <mxCell id="LhTqmezMrc8dayZ3SjZP-5" value="" style="html=1;points=[];perimeter=orthogonalPerimeter;outlineConnect=0;targetShapes=umlLifeline;portConstraint=eastwest;newEdgeStyle={&quot;edgeStyle&quot;:&quot;elbowEdgeStyle&quot;,&quot;elbow&quot;:&quot;vertical&quot;,&quot;curved&quot;:0,&quot;rounded&quot;:0};" vertex="1" parent="LhTqmezMrc8dayZ3SjZP-3">
          <mxGeometry x="-295.11582733812946" y="371.6279069767442" width="21.860431654676255" height="131.16279069767444" as="geometry" />
        </mxCell>
        <mxCell id="LhTqmezMrc8dayZ3SjZP-6" value="" style="html=1;points=[];perimeter=orthogonalPerimeter;outlineConnect=0;targetShapes=umlLifeline;portConstraint=eastwest;newEdgeStyle={&quot;edgeStyle&quot;:&quot;elbowEdgeStyle&quot;,&quot;elbow&quot;:&quot;vertical&quot;,&quot;curved&quot;:0,&quot;rounded&quot;:0};" vertex="1" parent="LhTqmezMrc8dayZ3SjZP-3">
          <mxGeometry x="98.37194244604315" y="371.6279069767442" width="21.860431654676255" height="131.16279069767444" as="geometry" />
        </mxCell>
        <mxCell id="LhTqmezMrc8dayZ3SjZP-7" value="GET /jobs/:job_id" style="html=1;verticalAlign=bottom;endArrow=block;edgeStyle=elbowEdgeStyle;elbow=vertical;curved=0;rounded=0;fontSize=14;" edge="1" parent="LhTqmezMrc8dayZ3SjZP-3">
          <mxGeometry x="-0.0058" relative="1" as="geometry">
            <mxPoint x="-273.4521395683453" y="393.48837209302326" as="sourcePoint" />
            <Array as="points">
              <mxPoint x="-87.63847050359712" y="393.48837209302326" />
            </Array>
            <mxPoint x="98.17519856115113" y="393.48837209302326" as="targetPoint" />
            <mxPoint as="offset" />
          </mxGeometry>
        </mxCell>
        <mxCell id="LhTqmezMrc8dayZ3SjZP-8" value="" style="html=1;points=[];perimeter=orthogonalPerimeter;outlineConnect=0;targetShapes=umlLifeline;portConstraint=eastwest;newEdgeStyle={&quot;edgeStyle&quot;:&quot;elbowEdgeStyle&quot;,&quot;elbow&quot;:&quot;vertical&quot;,&quot;curved&quot;:0,&quot;rounded&quot;:0};" vertex="1" parent="LhTqmezMrc8dayZ3SjZP-3">
          <mxGeometry x="98.37194244604315" y="109.30232558139537" width="21.860431654676255" height="43.720930232558146" as="geometry" />
        </mxCell>
        <mxCell id="LhTqmezMrc8dayZ3SjZP-9" value="job_id" style="html=1;verticalAlign=bottom;endArrow=open;dashed=1;endSize=8;edgeStyle=elbowEdgeStyle;elbow=vertical;curved=0;rounded=0;fontSize=14;" edge="1" parent="LhTqmezMrc8dayZ3SjZP-3" source="LhTqmezMrc8dayZ3SjZP-6" target="LhTqmezMrc8dayZ3SjZP-5">
          <mxGeometry x="0.0008" relative="1" as="geometry">
            <mxPoint x="-273.2553956834532" y="437.20930232558146" as="targetPoint" />
            <Array as="points">
              <mxPoint x="-65.58129496402877" y="437.20930232558146" />
            </Array>
            <mxPoint x="98.37194244604315" y="437.20930232558146" as="sourcePoint" />
            <mxPoint as="offset" />
          </mxGeometry>
        </mxCell>
        <mxCell id="LhTqmezMrc8dayZ3SjZP-10" value="POST /summary" style="html=1;verticalAlign=bottom;endArrow=block;edgeStyle=elbowEdgeStyle;elbow=vertical;curved=0;rounded=0;fontSize=14;" edge="1" parent="1" source="LhTqmezMrc8dayZ3SjZP-2" target="LhTqmezMrc8dayZ3SjZP-4">
          <mxGeometry x="-0.0057" relative="1" as="geometry">
            <mxPoint x="851.6266187050359" y="413.48837209302326" as="sourcePoint" />
            <Array as="points">
              <mxPoint x="818.8359712230215" y="391.6279069767442" />
            </Array>
            <mxPoint as="offset" />
          </mxGeometry>
        </mxCell>
        <mxCell id="LhTqmezMrc8dayZ3SjZP-11" value="job_id" style="html=1;verticalAlign=bottom;endArrow=open;dashed=1;endSize=8;edgeStyle=elbowEdgeStyle;elbow=vertical;curved=0;rounded=0;fontSize=14;" edge="1" parent="1" source="LhTqmezMrc8dayZ3SjZP-4" target="LhTqmezMrc8dayZ3SjZP-2">
          <mxGeometry x="0.0008" relative="1" as="geometry">
            <mxPoint x="633.0223021582733" y="450.6511627906977" as="targetPoint" />
            <Array as="points">
              <mxPoint x="840.6964028776978" y="450.6511627906977" />
            </Array>
            <mxPoint x="1004.6496402877696" y="450.6511627906977" as="sourcePoint" />
            <mxPoint as="offset" />
          </mxGeometry>
        </mxCell>
        <mxCell id="LhTqmezMrc8dayZ3SjZP-12" style="edgeStyle=orthogonalEdgeStyle;rounded=0;orthogonalLoop=1;jettySize=auto;html=1;" edge="1" parent="1" source="LhTqmezMrc8dayZ3SjZP-14">
          <mxGeometry relative="1" as="geometry">
            <mxPoint x="403.4877697841726" y="894.4186046511629" as="targetPoint" />
          </mxGeometry>
        </mxCell>
        <mxCell id="LhTqmezMrc8dayZ3SjZP-13" value="success" style="edgeLabel;html=1;align=center;verticalAlign=middle;resizable=0;points=[];fontSize=14;" connectable="0" vertex="1" parent="LhTqmezMrc8dayZ3SjZP-12">
          <mxGeometry x="-0.1621" relative="1" as="geometry">
            <mxPoint as="offset" />
          </mxGeometry>
        </mxCell>
        <mxCell id="LhTqmezMrc8dayZ3SjZP-14" value="check job status" style="strokeWidth=2;html=1;shape=mxgraph.flowchart.decision;whiteSpace=wrap;fontSize=14;" vertex="1" parent="1">
          <mxGeometry x="337.90647482014384" y="566.5116279069769" width="131.16258992805754" height="153.0232558139535" as="geometry" />
        </mxCell>
        <mxCell id="LhTqmezMrc8dayZ3SjZP-15" value="" style="endArrow=classic;html=1;rounded=0;entryX=1.045;entryY=0.516;entryDx=0;entryDy=0;entryPerimeter=0;" edge="1" parent="1" target="LhTqmezMrc8dayZ3SjZP-14">
          <mxGeometry width="50" height="50" relative="1" as="geometry">
            <mxPoint x="611.161870503597" y="620.9660465116278" as="sourcePoint" />
            <mxPoint x="469.0690647482014" y="675.8139534883721" as="targetPoint" />
          </mxGeometry>
        </mxCell>
        <mxCell id="LhTqmezMrc8dayZ3SjZP-16" value="job" style="edgeLabel;html=1;align=center;verticalAlign=middle;resizable=0;points=[];fontSize=14;labelBackgroundColor=none;" connectable="0" vertex="1" parent="LhTqmezMrc8dayZ3SjZP-15">
          <mxGeometry x="-0.1111" y="1" relative="1" as="geometry">
            <mxPoint y="-10" as="offset" />
          </mxGeometry>
        </mxCell>
        <mxCell id="LhTqmezMrc8dayZ3SjZP-17" value="" style="endArrow=classic;html=1;rounded=0;exitX=0.5;exitY=0;exitDx=0;exitDy=0;exitPerimeter=0;" edge="1" parent="1" source="LhTqmezMrc8dayZ3SjZP-14">
          <mxGeometry width="50" height="50" relative="1" as="geometry">
            <mxPoint x="381.6273381294963" y="544.6511627906978" as="sourcePoint" />
            <mxPoint x="612.2548920863309" y="544.6511627906978" as="targetPoint" />
          </mxGeometry>
        </mxCell>
        <mxCell id="LhTqmezMrc8dayZ3SjZP-18" value="&lt;font style=&quot;font-size: 14px;&quot;&gt;pending&lt;/font&gt;" style="edgeLabel;html=1;align=center;verticalAlign=middle;resizable=0;points=[];rotation=-5;labelBackgroundColor=none;fontSize=14;" connectable="0" vertex="1" parent="LhTqmezMrc8dayZ3SjZP-17">
          <mxGeometry x="-0.0768" y="1" relative="1" as="geometry">
            <mxPoint y="-9" as="offset" />
          </mxGeometry>
        </mxCell>
        <mxCell id="LhTqmezMrc8dayZ3SjZP-19" value="summary = job.result" style="rounded=0;whiteSpace=wrap;html=1;fontSize=12;labelBackgroundColor=none;fillColor=#d5e8d4;strokeColor=#82b366;" vertex="1" parent="1">
          <mxGeometry x="316.0460431654676" y="894.4186046511629" width="196.7438848920863" height="43.720930232558146" as="geometry" />
        </mxCell>
        <mxCell id="LhTqmezMrc8dayZ3SjZP-20" value="error&amp;nbsp;= job.result" style="rounded=0;whiteSpace=wrap;html=1;fontSize=14;labelBackgroundColor=none;fillColor=#f8cecc;strokeColor=#b85450;" vertex="1" parent="1">
          <mxGeometry x="10" y="621.1627906976745" width="153.0230215827338" height="43.720930232558146" as="geometry" />
        </mxCell>
        <mxCell id="LhTqmezMrc8dayZ3SjZP-21" style="edgeStyle=orthogonalEdgeStyle;rounded=0;orthogonalLoop=1;jettySize=auto;html=1;" edge="1" parent="1" source="LhTqmezMrc8dayZ3SjZP-14" target="LhTqmezMrc8dayZ3SjZP-20">
          <mxGeometry relative="1" as="geometry">
            <mxPoint x="163.0230215827338" y="643.0232558139536" as="targetPoint" />
          </mxGeometry>
        </mxCell>
        <mxCell id="LhTqmezMrc8dayZ3SjZP-22" value="error" style="edgeLabel;html=1;align=center;verticalAlign=middle;resizable=0;points=[];fontSize=14;labelBackgroundColor=none;" connectable="0" vertex="1" parent="LhTqmezMrc8dayZ3SjZP-21">
          <mxGeometry x="-0.0551" y="1" relative="1" as="geometry">
            <mxPoint y="-10" as="offset" />
          </mxGeometry>
        </mxCell>
        <mxCell id="LhTqmezMrc8dayZ3SjZP-23" value="" style="endArrow=classic;startArrow=classic;html=1;rounded=0;" edge="1" parent="1" source="LhTqmezMrc8dayZ3SjZP-8" target="LhTqmezMrc8dayZ3SjZP-30">
          <mxGeometry width="50" height="50" relative="1" as="geometry">
            <mxPoint x="950.0033597824178" y="391.6279069767442" as="sourcePoint" />
            <mxPoint x="1441.8364129496401" y="391.6279069767442" as="targetPoint" />
          </mxGeometry>
        </mxCell>
        <mxCell id="LhTqmezMrc8dayZ3SjZP-24" value="sync" style="edgeLabel;html=1;align=center;verticalAlign=middle;resizable=0;points=[];labelBackgroundColor=none;fontSize=14;" connectable="0" vertex="1" parent="LhTqmezMrc8dayZ3SjZP-23">
          <mxGeometry x="0.0186" y="-1" relative="1" as="geometry">
            <mxPoint x="-87" y="-11" as="offset" />
          </mxGeometry>
        </mxCell>
        <mxCell id="LhTqmezMrc8dayZ3SjZP-25" value="" style="endArrow=classic;html=1;rounded=0;" edge="1" parent="1" target="LhTqmezMrc8dayZ3SjZP-31">
          <mxGeometry width="50" height="50" relative="1" as="geometry">
            <mxPoint x="1037.440287769784" y="435.3488372093024" as="sourcePoint" />
            <mxPoint x="1828.2414028776977" y="435.3488372093024" as="targetPoint" />
          </mxGeometry>
        </mxCell>
        <mxCell id="LhTqmezMrc8dayZ3SjZP-26" value="push job" style="edgeLabel;html=1;align=center;verticalAlign=middle;resizable=0;points=[];labelBackgroundColor=none;fontSize=14;" connectable="0" vertex="1" parent="LhTqmezMrc8dayZ3SjZP-25">
          <mxGeometry x="-0.0013" relative="1" as="geometry">
            <mxPoint x="-86" y="-11" as="offset" />
          </mxGeometry>
        </mxCell>
        <mxCell id="LhTqmezMrc8dayZ3SjZP-27" value="" style="group;fontSize=14;" connectable="0" vertex="1" parent="1">
          <mxGeometry x="1824.4158273381292" y="20" width="160.67417266187047" height="940" as="geometry" />
        </mxCell>
        <mxCell id="LhTqmezMrc8dayZ3SjZP-28" value="" style="endArrow=none;dashed=1;html=1;dashPattern=1 3;strokeWidth=2;rounded=0;entryX=0.5;entryY=1;entryDx=0;entryDy=0;entryPerimeter=0;" edge="1" parent="LhTqmezMrc8dayZ3SjZP-27" source="LhTqmezMrc8dayZ3SjZP-32" target="LhTqmezMrc8dayZ3SjZP-29">
          <mxGeometry width="50" height="50" relative="1" as="geometry">
            <mxPoint x="80.88359712230215" y="940.0000000000002" as="sourcePoint" />
            <mxPoint x="-109.30215827338128" y="303.2258064516129" as="targetPoint" />
          </mxGeometry>
        </mxCell>
        <mxCell id="LhTqmezMrc8dayZ3SjZP-29" value="pending jobs" style="outlineConnect=0;dashed=0;verticalLabelPosition=bottom;verticalAlign=top;align=center;html=1;shape=mxgraph.aws3.queue;fillColor=#D9A741;gradientColor=none;labelBackgroundColor=default;fontSize=14;" vertex="1" parent="LhTqmezMrc8dayZ3SjZP-27">
          <mxGeometry y="100" width="160.67" height="45.55" as="geometry" />
        </mxCell>
        <mxCell id="LhTqmezMrc8dayZ3SjZP-30" value="" style="html=1;points=[];perimeter=orthogonalPerimeter;outlineConnect=0;targetShapes=umlLifeline;portConstraint=eastwest;newEdgeStyle={&quot;edgeStyle&quot;:&quot;elbowEdgeStyle&quot;,&quot;elbow&quot;:&quot;vertical&quot;,&quot;curved&quot;:0,&quot;rounded&quot;:0};" vertex="1" parent="LhTqmezMrc8dayZ3SjZP-27">
          <mxGeometry x="69.40687050359712" y="233.91473368342093" width="21.860431654676255" height="60.645161290322584" as="geometry" />
        </mxCell>
        <mxCell id="LhTqmezMrc8dayZ3SjZP-31" value="" style="html=1;points=[];perimeter=orthogonalPerimeter;outlineConnect=0;targetShapes=umlLifeline;portConstraint=eastwest;newEdgeStyle={&quot;edgeStyle&quot;:&quot;elbowEdgeStyle&quot;,&quot;elbow&quot;:&quot;vertical&quot;,&quot;curved&quot;:0,&quot;rounded&quot;:0};" vertex="1" parent="LhTqmezMrc8dayZ3SjZP-27">
          <mxGeometry x="69.40687050359712" y="393.4806151537885" width="21.860431654676255" height="60.645161290322584" as="geometry" />
        </mxCell>
        <mxCell id="LhTqmezMrc8dayZ3SjZP-32" value="" style="html=1;points=[];perimeter=orthogonalPerimeter;outlineConnect=0;targetShapes=umlLifeline;portConstraint=eastwest;newEdgeStyle={&quot;edgeStyle&quot;:&quot;elbowEdgeStyle&quot;,&quot;elbow&quot;:&quot;vertical&quot;,&quot;curved&quot;:0,&quot;rounded&quot;:0};" vertex="1" parent="LhTqmezMrc8dayZ3SjZP-27">
          <mxGeometry x="69.40687050359712" y="699.5271267816954" width="21.860431654676255" height="60.645161290322584" as="geometry" />
        </mxCell>
        <mxCell id="LhTqmezMrc8dayZ3SjZP-33" value="LLM" style="shape=umlLifeline;perimeter=lifelinePerimeter;whiteSpace=wrap;html=1;container=0;dropTarget=0;collapsible=0;recursiveResize=0;outlineConnect=0;portConstraint=eastwest;newEdgeStyle={&quot;edgeStyle&quot;:&quot;elbowEdgeStyle&quot;,&quot;elbow&quot;:&quot;vertical&quot;,&quot;curved&quot;:0,&quot;rounded&quot;:0};fontSize=14;" vertex="1" parent="1">
          <mxGeometry x="1387.2071942446041" y="151.16279069767444" width="218.60431654676256" height="546.5116279069769" as="geometry" />
        </mxCell>
        <mxCell id="LhTqmezMrc8dayZ3SjZP-34" value="" style="html=1;points=[];perimeter=orthogonalPerimeter;outlineConnect=0;targetShapes=umlLifeline;portConstraint=eastwest;newEdgeStyle={&quot;edgeStyle&quot;:&quot;elbowEdgeStyle&quot;,&quot;elbow&quot;:&quot;vertical&quot;,&quot;curved&quot;:0,&quot;rounded&quot;:0};" vertex="1" parent="LhTqmezMrc8dayZ3SjZP-33">
          <mxGeometry x="98.37194244604315" y="415.3488372093024" width="21.860431654676255" height="131.16279069767444" as="geometry" />
        </mxCell>
        <mxCell id="LhTqmezMrc8dayZ3SjZP-35" style="edgeStyle=elbowEdgeStyle;rounded=0;orthogonalLoop=1;jettySize=auto;html=1;elbow=vertical;curved=0;" edge="1" parent="1" source="LhTqmezMrc8dayZ3SjZP-4" target="LhTqmezMrc8dayZ3SjZP-34">
          <mxGeometry relative="1" as="geometry">
            <mxPoint x="1037.440287769784" y="614.6046511627908" as="sourcePoint" />
            <mxPoint x="1485.5791366906474" y="614.6046511627908" as="targetPoint" />
            <Array as="points">
              <mxPoint x="1124.882014388489" y="614.6046511627908" />
            </Array>
          </mxGeometry>
        </mxCell>
        <mxCell id="LhTqmezMrc8dayZ3SjZP-36" value="start inference" style="edgeLabel;html=1;align=center;verticalAlign=middle;resizable=0;points=[];labelBackgroundColor=none;fontSize=14;" connectable="0" vertex="1" parent="LhTqmezMrc8dayZ3SjZP-35">
          <mxGeometry x="-0.0224" y="-1" relative="1" as="geometry">
            <mxPoint y="-10" as="offset" />
          </mxGeometry>
        </mxCell>
        <mxCell id="LhTqmezMrc8dayZ3SjZP-37" style="edgeStyle=elbowEdgeStyle;rounded=0;orthogonalLoop=1;jettySize=auto;html=1;elbow=vertical;curved=0;dashed=1;" edge="1" parent="1" source="LhTqmezMrc8dayZ3SjZP-34" target="LhTqmezMrc8dayZ3SjZP-4">
          <mxGeometry relative="1" as="geometry">
            <Array as="points">
              <mxPoint x="1168.6028776978417" y="675.8139534883721" />
            </Array>
          </mxGeometry>
        </mxCell>
        <mxCell id="LhTqmezMrc8dayZ3SjZP-38" value="summary" style="edgeLabel;html=1;align=center;verticalAlign=middle;resizable=0;points=[];fontSize=14;" connectable="0" vertex="1" parent="LhTqmezMrc8dayZ3SjZP-37">
          <mxGeometry x="0.1946" y="1" relative="1" as="geometry">
            <mxPoint x="18" y="-11" as="offset" />
          </mxGeometry>
        </mxCell>
        <mxCell id="LhTqmezMrc8dayZ3SjZP-39" style="edgeStyle=elbowEdgeStyle;rounded=0;orthogonalLoop=1;jettySize=auto;html=1;elbow=vertical;curved=0;" edge="1" parent="1" target="LhTqmezMrc8dayZ3SjZP-32">
          <mxGeometry relative="1" as="geometry">
            <mxPoint x="1124.882014388489" y="750.139534883721" as="sourcePoint" />
            <mxPoint x="1889.9971223021582" y="750.136009002251" as="targetPoint" />
            <Array as="points">
              <mxPoint x="1037.440287769784" y="750.139534883721" />
            </Array>
          </mxGeometry>
        </mxCell>
        <mxCell id="LhTqmezMrc8dayZ3SjZP-40" value="remove job" style="edgeLabel;html=1;align=center;verticalAlign=middle;resizable=0;points=[];fontSize=14;" connectable="0" vertex="1" parent="LhTqmezMrc8dayZ3SjZP-39">
          <mxGeometry x="-0.5478" y="2" relative="1" as="geometry">
            <mxPoint x="12" y="-10" as="offset" />
          </mxGeometry>
        </mxCell>
      </root>
    </mxGraphModel>
  </diagram>
</mxfile>
